  0
SECTION
  2
HEADER
  9
$ACADVER
  1
AC1009
  9
$INSBASE
 10
0.0
 20
0.0
 30
0.0
  9
$EXTMIN
 10
-170.335123742381
 20
-48.000000010000001
 30
-0.00000001
  9
$EXTMAX
 10
234.11597047633921
 20
56.093180990274718
 30
44.0
  9
$LIMMIN
 10
0.0
 20
0.0
  9
$LIMMAX
 10
420.0
 20
297.0
  9
$ORTHOMODE
 70
     1
  9
$REGENMODE
 70
     1
  9
$FILLMODE
 70
     1
  9
$QTEXTMODE
 70
     0
  9
$MIRRTEXT
 70
     0
  9
$DRAGMODE
 70
     2
  9
$LTSCALE
 40
1.0
  9
$OSMODE
 70
  3071
  9
$ATTMODE
 70
     1
  9
$TEXTSIZE
 40
2.5
  9
$TRACEWID
 40
1.0
  9
$TEXTSTYLE
  7
STANDARD
  9
$CLAYER
  8
5-DURCHGANGSGEWINDE_M8X1_5
  9
$CELTYPE
  6
BYLAYER
  9
$CECOLOR
 62
   256
  9
$DIMSCALE
 40
1.0
  9
$DIMASZ
 40
2.5
  9
$DIMEXO
 40
0.625
  9
$DIMDLI
 40
3.75
  9
$DIMRND
 40
0.0
  9
$DIMDLE
 40
0.0
  9
$DIMEXE
 40
1.25
  9
$DIMTP
 40
0.0
  9
$DIMTM
 40
0.0
  9
$DIMTXT
 40
2.5
  9
$DIMCEN
 40
2.5
  9
$DIMTSZ
 40
0.0
  9
$DIMTOL
 70
     0
  9
$DIMLIM
 70
     0
  9
$DIMTIH
 70
     0
  9
$DIMTOH
 70
     0
  9
$DIMSE1
 70
     0
  9
$DIMSE2
 70
     0
  9
$DIMTAD
 70
     1
  9
$DIMZIN
 70
     8
  9
$DIMBLK
  1

  9
$DIMASO
 70
     1
  9
$DIMSHO
 70
     1
  9
$DIMPOST
  1

  9
$DIMAPOST
  1

  9
$DIMALT
 70
     0
  9
$DIMALTD
 70
     3
  9
$DIMALTF
 40
0.03937007874016
  9
$DIMLFAC
 40
1.0
  9
$DIMTOFL
 70
     1
  9
$DIMTVP
 40
0.0
  9
$DIMTIX
 70
     0
  9
$DIMSOXD
 70
     0
  9
$DIMSAH
 70
     0
  9
$DIMBLK1
  1

  9
$DIMBLK2
  1

  9
$DIMSTYLE
  2
ISO-25
  9
$DIMCLRD
 70
     0
  9
$DIMCLRE
 70
     0
  9
$DIMCLRT
 70
     0
  9
$DIMTFAC
 40
1.0
  9
$DIMGAP
 40
0.625
  9
$LUNITS
 70
     2
  9
$LUPREC
 70
     4
  9
$SKETCHINC
 40
1.0
  9
$FILLETRAD
 40
2.0
  9
$AUNITS
 70
     0
  9
$AUPREC
 70
     0
  9
$MENU
  1
.
  9
$ELEVATION
 40
0.0
  9
$PELEVATION
 40
0.0
  9
$THICKNESS
 40
0.0
  9
$LIMCHECK
 70
     0
  9
$BLIPMODE
 70
     0
  9
$CHAMFERA
 40
0.0
  9
$CHAMFERB
 40
0.0
  9
$SKPOLY
 70
     0
  9
$TDCREATE
 40
2455680.8986205091
  9
$TDUPDATE
 40
2459111.4637026042
  9
$TDINDWG
 40
0.2036290162
  9
$TDUSRTIMER
 40
0.2036272106
  9
$USRTIMER
 70
     1
  9
$ANGBASE
 50
0.0
  9
$ANGDIR
 70
     0
  9
$PDMODE
 70
     0
  9
$PDSIZE
 40
0.0
  9
$PLINEWID
 40
0.0
  9
$COORDS
 70
     0
  9
$SPLFRAME
 70
     0
  9
$SPLINETYPE
 70
     6
  9
$SPLINESEGS
 70
     8
  9
$ATTDIA
 70
     0
  9
$ATTREQ
 70
     1
  9
$HANDLING
 70
     1
  9
$HANDSEED
  5
287A
  9
$SURFTAB1
 70
     6
  9
$SURFTAB2
 70
     6
  9
$SURFTYPE
 70
     6
  9
$SURFU
 70
     6
  9
$SURFV
 70
     6
  9
$UCSNAME
  2

  9
$UCSORG
 10
-204.2415233802989
 20
-26.671084172758071
 30
0.0
  9
$UCSXDIR
 10
1.0
 20
0.0
 30
0.0
  9
$UCSYDIR
 10
0.0
 20
1.0
 30
0.0
  9
$PUCSNAME
  2

  9
$PUCSORG
 10
0.0
 20
0.0
 30
0.0
  9
$PUCSXDIR
 10
1.0
 20
0.0
 30
0.0
  9
$PUCSYDIR
 10
0.0
 20
1.0
 30
0.0
  9
$USERI1
 70
     0
  9
$USERI2
 70
     0
  9
$USERI3
 70
     0
  9
$USERI4
 70
     0
  9
$USERI5
 70
     0
  9
$USERR1
 40
0.0
  9
$USERR2
 40
0.0
  9
$USERR3
 40
0.0
  9
$USERR4
 40
0.0
  9
$USERR5
 40
0.0
  9
$WORLDVIEW
 70
     1
  9
$SHADEDGE
 70
     3
  9
$SHADEDIF
 70
    70
  9
$TILEMODE
 70
     1
  9
$MAXACTVP
 70
    64
  9
$PLIMCHECK
 70
     0
  9
$PEXTMIN
 10
0.0
 20
0.0
 30
0.0
  9
$PEXTMAX
 10
0.0
 20
0.0
 30
0.0
  9
$PLIMMIN
 10
0.0
 20
0.0
  9
$PLIMMAX
 10
12.0
 20
9.0
  9
$UNITMODE
 70
     0
  9
$VISRETAIN
 70
     1
  9
$PLINEGEN
 70
     0
  9
$PSLTSCALE
 70
     1
  0
ENDSEC
  0
SECTION
  2
TABLES
  0
TABLE
  2
VPORT
 70
     1
  0
VPORT
  2
*ACTIVE
 70
     0
 10
0.0
 20
0.0
 11
1.0
 21
1.0
 12
31.31671740549876
 22
-6.9417254036216027
 13
0.0
 23
0.0
 14
10.0
 24
10.0
 15
10.0
 25
10.0
 16
30.69192794760065
 26
-136.32344523759821
 36
230.3550944318882
 17
0.2449754696452535
 27
5.6997304893648142
 37
26.979064315461731
 40
191.414704730311
 41
2.1838671411625139
 42
50.0
 43
0.0
 44
0.0
 50
0.0
 51
5.4862833054725009
 71
     0
 72
  1000
 73
     1
 74
     3
 75
     0
 76
     0
 77
     0
 78
     0
  0
ENDTAB
  0
TABLE
  2
LTYPE
 70
     2
  0
LTYPE
  2
CONTINUOUS
 70
     0
  3
Solid line
 72
    65
 73
     0
 40
0.0
  0
ENDTAB
  0
TABLE
  2
LAYER
 70
    10
  0
LAYER
  2
0
 70
     0
 62
     7
  6
CONTINUOUS
  0
LAYER
  2
1-LOCHKREIS_80MM
 70
     0
 62
    31
  6
CONTINUOUS
  0
LAYER
  2
2-WERKZEUGVERSCHRAUBUNG
 70
     0
 62
   -41
  6
CONTINUOUS
  0
LAYER
  2
01-3D
 70
     0
 62
    71
  6
CONTINUOUS
  0
LAYER
  2
4-ROHRGEWINDE-AUSSEN_M45X2
 70
     0
 62
   141
  6
CONTINUOUS
  0
LAYER
  2
5-DURCHGANGSGEWINDE_M8X1_5
 70
     0
 62
   225
  6
CONTINUOUS
  0
LAYER
  2
7-FLANSCH-AUSSEN_96MM_17MM
 70
     0
 62
     3
  6
CONTINUOUS
  0
LAYER
  2
6-KOPFPASSUNG_7MM
 70
     0
 62
   240
  6
CONTINUOUS
  0
LAYER
  2
3-SCHNECKENROHR-BARREL
 70
     0
 62
     4
  6
CONTINUOUS
  0
LAYER
  2
DEFPOINTS
 70
     0
 62
     7
  6
CONTINUOUS
  0
ENDTAB
  0
TABLE
  2
STYLE
 70
     2
  0
STYLE
  2
STANDARD
 70
     0
 40
0.0
 41
1.0
 50
0.0
 71
     0
 42
2.5
  3
txt
  4

  0
STYLE
  2
ANNOTATIVE
 70
     0
 40
0.0
 41
1.0
 50
0.0
 71
     0
 42
0.2
  3
txt
  4

  0
ENDTAB
  0
TABLE
  2
VIEW
 70
     1
  0
ENDTAB
  0
TABLE
  2
UCS
 70
     0
  0
ENDTAB
  0
TABLE
  2
APPID
 70
     7
  0
APPID
  2
ACAD
 70
     0
  0
APPID
  2
ACADANNOTATIVE
 70
     0
  0
APPID
  2
ACAD_PSEXT
 70
     0
  0
APPID
  2
ACAD_EXEMPT_FROM_CAD_STANDARDS
 70
     0
  0
APPID
  2
ACAD_MLEADERVER
 70
     0
  0
APPID
  2
ACAECLAYERSTANDARD
 70
     0
  0
APPID
  2
ACAD_DSTYLE_DIMRADIAL_EXTENSION
 70
     0
  0
ENDTAB
  0
TABLE
  2
DIMSTYLE
 70
     4
  0
DIMSTYLE
  2
STANDARD
 70
     0
  3

  4

  5

  6

  7

 40
1.0
 41
0.18
 42
0.0625
 43
0.38
 44
0.18
 45
0.0
 46
0.0
 47
0.0
 48
0.0
140
0.18
141
0.09
142
0.0
143
25.399999999999999
144
1.0
145
0.0
146
1.0
147
0.09
 71
     0
 72
     0
 73
     1
 74
     1
 75
     0
 76
     0
 77
     0
 78
     0
170
     0
171
     2
172
     0
173
     0
174
     0
175
     0
176
     0
177
     0
178
     0
  0
DIMSTYLE
  2
ANNOTATIVE
 70
     0
  3

  4

  5

  6

  7

 40
1.0
 41
0.18
 42
0.0625
 43
0.38
 44
0.18
 45
0.0
 46
0.0
 47
0.0
 48
0.0
140
0.18
141
0.09
142
0.0
143
25.399999999999999
144
1.0
145
0.0
146
1.0
147
0.09
 71
     0
 72
     0
 73
     1
 74
     1
 75
     0
 76
     0
 77
     0
 78
     0
170
     0
171
     2
172
     0
173
     0
174
     0
175
     0
176
     0
177
     0
178
     0
  0
DIMSTYLE
  2
ISO-25
 70
     0
  3

  4

  5

  6

  7

 40
1.0
 41
2.5
 42
0.625
 43
3.75
 44
1.25
 45
0.0
 46
0.0
 47
0.0
 48
0.0
140
2.5
141
2.5
142
0.0
143
0.03937007874016
144
1.0
145
0.0
146
1.0
147
0.625
 71
     0
 72
     0
 73
     0
 74
     0
 75
     0
 76
     0
 77
     1
 78
     8
170
     0
171
     3
172
     1
173
     0
174
     0
175
     0
176
     0
177
     0
178
     0
  0
ENDTAB
  0
ENDSEC
  0
SECTION
  2
BLOCKS
  0
BLOCK
  8
0
  2
$MODEL_SPACE
 70
     0
 10
0.0
 20
0.0
 30
0.0
  3
$MODEL_SPACE
  1

  0
ENDBLK
  5
726
  8
0
  0
BLOCK
 67
     1
  8
0
  2
$PAPER_SPACE
 70
     0
 10
0.0
 20
0.0
 30
0.0
  3
$PAPER_SPACE
  1

  0
ENDBLK
  5
722
 67
     1
  8
0
  0
BLOCK
  8
0
  2
*D2
 70
     1
 10
0.0
 20
0.0
 30
0.0
  3
*D2
  1

  0
LINE
  5
676
  8
0
 62
     0
 10
74.490970475270501
 20
15.0
 30
0.0
 11
67.523429966658796
 21
15.0
 31
0.0
  0
LINE
  5
677
  8
0
 62
     0
 10
74.490970475270501
 20
-15.0
 30
0.0
 11
67.523429966658796
 21
-15.0
 31
0.0
  0
LINE
  5
678
  8
0
 62
     0
 10
68.773429966658796
 20
12.5
 30
0.0
 11
68.773429966658796
 21
-12.5
 31
0.0
  0
SOLID
  5
679
  8
0
 62
     0
 10
68.356763299992139
 20
12.5
 30
0.0
 11
69.190096633325467
 21
12.5
 31
0.0
 12
68.773429966658796
 22
15.0
 32
0.0
 13
68.773429966658796
 23
15.0
 33
0.0
  0
SOLID
  5
67A
  8
0
 62
     0
 10
68.356763299992139
 20
-12.5
 30
0.0
 11
69.190096633325467
 21
-12.5
 31
0.0
 12
68.773429966658796
 22
-15.0
 32
0.0
 13
68.773429966658796
 23
-15.0
 33
0.0
  0
TEXT
  5
6AA
  8
0
 62
     0
 10
61.898400000000002
 20
-4.4249999999999989
 30
0.0
 40
2.5
  1
30
  0
POINT
  5
67C
  8
DEFPOINTS
 62
     0
 10
75.115970475270501
 20
15.0
 30
0.0
  0
POINT
  5
67D
  8
DEFPOINTS
 62
     0
 10
75.115970475270501
 20
-15.0
 30
0.0
  0
POINT
  5
67E
  8
DEFPOINTS
 62
     0
 10
68.773429966658796
 20
-15.0
 30
0.0
  0
ENDBLK
  5
3B3
  8
0
  0
BLOCK
  8
0
  2
*D3
 70
     1
 10
0.0
 20
0.0
 30
0.0
  3
*D3
  1

  0
LINE
  5
67F
  8
0
 62
     0
 10
74.490970475270501
 20
25.0
 30
0.0
 11
62.048262704234972
 21
25.0
 31
0.0
  0
LINE
  5
680
  8
0
 62
     0
 10
74.490970475270501
 20
-25.0
 30
0.0
 11
62.048262704234951
 21
-25.0
 31
0.0
  0
LINE
  5
681
  8
0
 62
     0
 10
63.298262704234972
 20
22.5
 30
0.0
 11
63.298262704234951
 21
-22.5
 31
0.0
  0
SOLID
  5
682
  8
0
 62
     0
 10
62.881596037568308
 20
22.5
 30
0.0
 11
63.714929370901608
 21
22.5
 31
0.0
 12
63.298262704234972
 22
25.0
 32
0.0
 13
63.298262704234972
 23
25.0
 33
0.0
  0
SOLID
  5
683
  8
0
 62
     0
 10
62.881596037568293
 20
-22.5
 30
0.0
 11
63.714929370901608
 21
-22.5
 31
0.0
 12
63.298262704234951
 22
-25.0
 32
0.0
 13
63.298262704234951
 23
-25.0
 33
0.0
  0
TEXT
  5
6AB
  8
0
 62
     0
 10
56.423299999999998
 20
-4.4249999999999989
 30
0.0
 40
2.5
  1
50
  0
POINT
  5
685
  8
DEFPOINTS
 62
     0
 10
75.115970475270501
 20
25.0
 30
0.0
  0
POINT
  5
686
  8
DEFPOINTS
 62
     0
 10
75.115970475270501
 20
-25.0
 30
0.0
  0
POINT
  5
687
  8
DEFPOINTS
 62
     0
 10
63.298262704234951
 20
-25.0
 30
0.0
  0
ENDBLK
  5
3C0
  8
0
  0
BLOCK
  8
0
  2
*D4
 70
     1
 10
0.0
 20
0.0
 30
0.0
  3
*D4
  1

  0
LINE
  5
688
  8
0
 62
     0
 10
81.490970475270501
 20
47.999999999999993
 30
0.0
 11
56.00669931687743
 21
48.0
 31
0.0
  0
LINE
  5
689
  8
0
 62
     0
 10
81.490970475270501
 20
-48.0
 30
0.0
 11
56.006699316877402
 21
-47.999999999999993
 31
0.0
  0
LINE
  5
68A
  8
0
 62
     0
 10
57.25669931687743
 20
45.499999999999993
 30
0.0
 11
57.256699316877402
 21
-45.499999999999993
 31
0.0
  0
SOLID
  5
68B
  8
0
 62
     0
 10
56.840032650210752
 20
45.499999999999993
 30
0.0
 11
57.673365983544087
 21
45.499999999999993
 31
0.0
 12
57.25669931687743
 22
48.0
 32
0.0
 13
57.25669931687743
 23
48.0
 33
0.0
  0
SOLID
  5
68C
  8
0
 62
     0
 10
56.840032650210752
 20
-45.499999999999993
 30
0.0
 11
57.67336598354408
 21
-45.499999999999993
 31
0.0
 12
57.256699316877402
 22
-47.999999999999993
 32
0.0
 13
57.256699316877402
 23
-47.999999999999993
 33
0.0
  0
TEXT
  5
6AC
  8
0
 62
     0
 10
50.381700000000002
 20
-4.4249999999999989
 30
0.0
 40
2.5
  1
96
  0
POINT
  5
68E
  8
DEFPOINTS
 62
     0
 10
82.115970475270501
 20
47.999999999999993
 30
0.0
  0
POINT
  5
68F
  8
DEFPOINTS
 62
     0
 10
82.115970475270501
 20
-48.0
 30
0.0
  0
POINT
  5
690
  8
DEFPOINTS
 62
     0
 10
57.256699316877402
 20
-47.999999999999993
 30
0.0
  0
ENDBLK
  5
3CD
  8
0
  0
BLOCK
  8
0
  2
*D5
 70
     1
 10
0.0
 20
0.0
 30
0.0
  3
*D5
  1

  0
LINE
  5
6A1
  8
0
 62
     0
 10
49.857309762408129
 20
44.512397494924933
 30
0.0
 11
31.703316541833061
 21
28.304588325010752
 31
0.0
  0
LINE
  5
6A2
  8
0
 62
     0
 10
-31.703316541833061
 20
-28.304588325010752
 30
0.0
 11
-33.568217514882051
 21
-29.969564108834909
 31
0.0
  0
TEXT
  5
6AE
  8
0
 62
     0
 10
40.811199999999999
 20
38.988599999999998
 30
0.0
 40
2.5
  1
?80
  0
LINE
  5
6A4
  8
0
 62
     0
 10
-29.83841556878405
 20
-26.63961254118659
 30
0.0
 11
29.83841556878405
 21
26.63961254118659
 31
0.0
  0
SOLID
  5
6A5
  8
0
 62
     0
 10
-31.98081250580374
 20
-27.993771496169249
 30
0.0
 11
-31.42582057786236
 21
-28.615405153852251
 31
0.0
 12
-29.83841556878405
 22
-26.63961254118659
 32
0.0
 13
-29.83841556878405
 23
-26.63961254118659
 33
0.0
  0
SOLID
  5
6A6
  8
0
 62
     0
 10
31.42582057786236
 20
28.615405153852251
 30
0.0
 11
31.98081250580374
 21
27.993771496169249
 31
0.0
 12
29.83841556878405
 22
26.63961254118659
 32
0.0
 13
29.83841556878405
 23
26.63961254118659
 33
0.0
  0
POINT
  5
6A7
  8
DEFPOINTS
 62
     0
 10
29.83841556878405
 20
26.63961254118659
 30
0.0
  0
POINT
  5
6A8
  8
DEFPOINTS
 62
     0
 10
-29.83841556878405
 20
-26.63961254118659
 30
0.0
  0
ENDBLK
  5
5BF
  8
0
  0
BLOCK
  8
0
  2
*D7
 70
     1
 10
0.0
 20
0.0
 30
0.0
  3
*D7
  1

  0
LINE
  5
275E
  8
0
 62
     0
 10
75.053470475270501
 20
15.0
 30
0.0
 11
68.593429966658789
 21
15.0
 31
0.0
  0
LINE
  5
275F
  8
0
 62
     0
 10
75.053470475270501
 20
-15.0
 30
0.0
 11
68.593429966658789
 21
-15.0
 31
0.0
  0
LINE
  5
2760
  8
0
 62
     0
 10
68.773429966658796
 20
14.82
 30
0.0
 11
68.773429966658796
 21
0.1800000000000007
 31
0.0
  0
LINE
  5
2761
  8
0
 62
     0
 10
68.773429966658796
 20
-14.82
 30
0.0
 11
68.773429966658796
 21
-0.1799999999999993
 31
0.0
  0
SOLID
  5
2762
  8
0
 62
     0
 10
68.743429966658795
 20
14.82
 30
0.0
 11
68.803429966658797
 21
14.82
 31
0.0
 12
68.773429966658796
 22
15.0
 32
0.0
 13
68.773429966658796
 23
15.0
 33
0.0
  0
SOLID
  5
2763
  8
0
 62
     0
 10
68.743429966658795
 20
-14.82
 30
0.0
 11
68.803429966658797
 21
-14.82
 31
0.0
 12
68.773429966658796
 22
-15.0
 32
0.0
 13
68.773429966658796
 23
-15.0
 33
0.0
  0
TEXT
  8
0
  40
0.18
  5
2876
  62
0
  72
0
  71
0
 10
68.4134
 20
-0.318600
 30
0.000000
  1
30.0000
  0
POINT
  5
2765
  8
DEFPOINTS
 62
     0
 10
75.115970475270501
 20
15.0
 30
0.0
  0
POINT
  5
2766
  8
DEFPOINTS
 62
     0
 10
75.115970475270501
 20
-15.0
 30
0.0
  0
POINT
  5
2767
  8
DEFPOINTS
 62
     0
 10
68.773429966658796
 20
-15.0
 30
0.0
  0
ENDBLK
  5
275D
  8
0
  0
BLOCK
  8
0
  2
*D8
 70
     1
 10
0.0
 20
0.0
 30
0.0
  3
*D8
  1

  0
LINE
  5
276B
  8
0
 62
     0
 10
75.053470475270501
 20
25.0
 30
0.0
 11
63.118262704234958
 21
25.0
 31
0.0
  0
LINE
  5
276C
  8
0
 62
     0
 10
75.053470475270501
 20
-25.0
 30
0.0
 11
63.118262704234951
 21
-25.0
 31
0.0
  0
LINE
  5
276D
  8
0
 62
     0
 10
63.298262704234958
 20
24.820000000000011
 30
0.0
 11
63.298262704234951
 21
0.1800000000000037
 31
0.0
  0
LINE
  5
276E
  8
0
 62
     0
 10
63.298262704234951
 20
-24.82
 30
0.0
 11
63.298262704234951
 21
-0.1799999999999963
 31
0.0
  0
SOLID
  5
276F
  8
0
 62
     0
 10
63.268262704234957
 20
24.820000000000011
 30
0.0
 11
63.328262704234959
 21
24.820000000000011
 31
0.0
 12
63.298262704234958
 22
25.0
 32
0.0
 13
63.298262704234958
 23
25.0
 33
0.0
  0
SOLID
  5
2770
  8
0
 62
     0
 10
63.268262704234949
 20
-24.82
 30
0.0
 11
63.328262704234952
 21
-24.82
 31
0.0
 12
63.298262704234951
 22
-25.0
 32
0.0
 13
63.298262704234951
 23
-25.0
 33
0.0
  0
TEXT
  8
0
  40
0.18
  5
2877
  62
0
  72
0
  71
0
 10
62.9383
 20
-0.318600
 30
0.000000
  1
50.0000
  0
POINT
  5
2772
  8
DEFPOINTS
 62
     0
 10
75.115970475270501
 20
25.0
 30
0.0
  0
POINT
  5
2773
  8
DEFPOINTS
 62
     0
 10
75.115970475270501
 20
-25.0
 30
0.0
  0
POINT
  5
2774
  8
DEFPOINTS
 62
     0
 10
63.298262704234951
 20
-25.0
 30
0.0
  0
ENDBLK
  5
276A
  8
0
  0
BLOCK
  8
0
  2
*D9
 70
     1
 10
0.0
 20
0.0
 30
0.0
  3
*D9
  1

  0
LINE
  5
2778
  8
0
 62
     0
 10
82.053470475270501
 20
47.999999999999993
 30
0.0
 11
57.076699316877431
 21
48.0
 31
0.0
  0
LINE
  5
2779
  8
0
 62
     0
 10
82.053470475270501
 20
-48.0
 30
0.0
 11
57.076699316877402
 21
-47.999999999999993
 31
0.0
  0
LINE
  5
277A
  8
0
 62
     0
 10
57.256699316877409
 20
47.82
 30
0.0
 11
57.256699316877409
 21
0.180000000000005
 31
0.0
  0
LINE
  5
277B
  8
0
 62
     0
 10
57.256699316877402
 20
-47.819999999999993
 30
0.0
 11
57.256699316877409
 21
-0.1799999999999949
 31
0.0
  0
SOLID
  5
277C
  8
0
 62
     0
 10
57.226699316877408
 20
47.82
 30
0.0
 11
57.286699316877417
 21
47.82
 31
0.0
 12
57.256699316877423
 22
48.0
 32
0.0
 13
57.256699316877423
 23
48.0
 33
0.0
  0
SOLID
  5
277D
  8
0
 62
     0
 10
57.226699316877401
 20
-47.819999999999993
 30
0.0
 11
57.286699316877403
 21
-47.819999999999993
 31
0.0
 12
57.256699316877402
 22
-47.999999999999993
 32
0.0
 13
57.256699316877402
 23
-47.999999999999993
 33
0.0
  0
TEXT
  8
0
  40
0.18
  5
2878
  62
0
  72
0
  71
0
 10
56.8967
 20
-0.318600
 30
0.000000
  1
96.0000
  0
POINT
  5
277F
  8
DEFPOINTS
 62
     0
 10
82.115970475270501
 20
47.999999999999993
 30
0.0
  0
POINT
  5
2780
  8
DEFPOINTS
 62
     0
 10
82.115970475270501
 20
-48.0
 30
0.0
  0
POINT
  5
2781
  8
DEFPOINTS
 62
     0
 10
57.256699316877402
 20
-47.999999999999993
 30
0.0
  0
ENDBLK
  5
2777
  8
0
  0
BLOCK
  8
0
  2
*D10
 70
     1
 10
0.0
 20
0.0
 30
0.0
  3
*D10
  1

  0
LINE
  5
2785
  8
0
 62
     0
 10
47.239958302834623
 20
42.014933819188698
 30
0.0
 11
47.05995830283463
 21
42.014933819188698
 31
0.0
  0
LINE
  5
2786
  8
0
 62
     0
 10
47.05995830283463
 20
42.014933819188698
 30
0.0
 11
29.97268843884358
 21
26.759490797621929
 31
0.0
  0
TEXT
  8
0
  40
0.18
  5
2879
  62
0
  72
0
  71
0
 10
47.5250
 20
41.6963
 30
0.000000
  1
%%c80.0000
  0
SOLID
  5
2788
  8
0
 62
     0
 10
29.952708729437681
 20
26.781869609298521
 30
0.0
 11
29.992668148249471
 21
26.73711198594534
 31
0.0
 12
29.83841556878405
 22
26.63961254118659
 32
0.0
 13
29.83841556878405
 23
26.63961254118659
 33
0.0
  0
LINE
  5
2789
  8
0
 62
     0
 10
-0.09
 20
0.0
 30
0.0
 11
0.09
 21
0.0
 31
0.0
  0
LINE
  5
278A
  8
0
 62
     0
 10
0.0
 20
-0.09
 30
0.0
 11
0.0
 21
0.09
 31
0.0
  0
POINT
  5
278B
  8
DEFPOINTS
 62
     0
 10
29.83841556878405
 20
26.63961254118659
 30
0.0
  0
POINT
  5
278C
  8
DEFPOINTS
 62
     0
 10
-29.83841556878405
 20
-26.63961254118659
 30
0.0
  0
ENDBLK
  5
2784
  8
0
  0
BLOCK
  8
0
  2
*U11
 70
     1
 10
0.0
 20
0.0
 30
0.0
  3
*U11
  1

  0
CIRCLE
  5
27CE
  8
01-3D
 10
-122.335123742381
 20
8.0931809902747176
 30
0.0
 40
30.0
  0
CIRCLE
  5
27CF
  8
01-3D
 10
-122.335123742381
 20
8.0931809902747176
 30
20.0
 40
30.0
  0
CIRCLE
  5
27D0
  8
01-3D
 10
122.335123742381
 20
8.0931809902747176
 30
0.0
 40
20.0
210
0.0
220
0.0
230
-1.0
  0
CIRCLE
  5
27D1
  8
01-3D
 10
122.335123742381
 20
8.0931809902747176
 30
-20.0
 40
20.0
210
0.0
220
0.0
230
-1.0
  0
CIRCLE
  5
27D2
  8
01-3D
 10
122.335123742381
 20
8.0931809902747176
 30
0.0
 40
30.0
210
0.0
220
0.0
230
-1.0
  0
CIRCLE
  5
27D3
  8
01-3D
 10
122.335123742381
 20
8.0931809902747176
 30
0.0
 40
20.0
210
0.0
220
0.0
230
-1.0
  0
CIRCLE
  5
27D4
  8
01-3D
 10
122.335123742381
 20
8.0931809902747176
 30
-20.0
 40
30.0
210
0.0
220
0.0
230
-1.0
  0
CIRCLE
  5
27D5
  8
01-3D
 10
122.335123742381
 20
8.0931809902747176
 30
-20.0
 40
48.0
210
0.0
220
0.0
230
-1.0
  0
CIRCLE
  5
27D6
  8
01-3D
 10
122.335123742381
 20
-31.906819009725279
 30
-20.0
 40
4.0
210
0.0
220
0.0
230
-1.0
  0
CIRCLE
  5
27D7
  8
01-3D
 10
87.694107591003444
 20
-11.9068190097253
 30
-20.0
 40
4.0
210
0.0
220
0.0
230
-1.0
  0
CIRCLE
  5
27D8
  8
01-3D
 10
87.694107591003373
 20
28.093180990274689
 30
-20.0
 40
4.0
210
0.0
220
0.0
230
-1.0
  0
CIRCLE
  5
27D9
  8
01-3D
 10
156.9761398937585
 20
-11.90681900972525
 30
-20.0
 40
4.0
210
0.0
220
0.0
230
-1.0
  0
CIRCLE
  5
27DA
  8
01-3D
 10
122.335123742381
 20
48.09318099027471
 30
-20.0
 40
4.0
210
0.0
220
0.0
230
-1.0
  0
CIRCLE
  5
27DB
  8
01-3D
 10
156.9761398937585
 20
28.093180990274721
 30
-20.0
 40
4.0
210
0.0
220
0.0
230
-1.0
  0
CIRCLE
  5
27DC
  8
01-3D
 10
-156.9761398937585
 20
28.093180990274721
 30
37.0
 40
4.0
  0
CIRCLE
  5
27DD
  8
01-3D
 10
156.9761398937585
 20
28.093180990274721
 30
-20.0
 40
4.0
210
0.0
220
0.0
230
-1.0
  0
CIRCLE
  5
27DE
  8
01-3D
 10
-122.335123742381
 20
48.09318099027471
 30
37.0
 40
4.0
  0
CIRCLE
  5
27DF
  8
01-3D
 10
122.335123742381
 20
48.09318099027471
 30
-20.0
 40
4.0
210
0.0
220
0.0
230
-1.0
  0
CIRCLE
  5
27E0
  8
01-3D
 10
-156.9761398937585
 20
-11.90681900972525
 30
37.0
 40
4.0
  0
CIRCLE
  5
27E1
  8
01-3D
 10
156.9761398937585
 20
-11.90681900972525
 30
-20.0
 40
4.0
210
0.0
220
0.0
230
-1.0
  0
CIRCLE
  5
27E2
  8
01-3D
 10
-87.694107591003373
 20
28.093180990274689
 30
37.0
 40
4.0
  0
CIRCLE
  5
27E3
  8
01-3D
 10
87.694107591003373
 20
28.093180990274689
 30
-20.0
 40
4.0
210
0.0
220
0.0
230
-1.0
  0
CIRCLE
  5
27E4
  8
01-3D
 10
-87.694107591003444
 20
-11.9068190097253
 30
37.0
 40
4.0
  0
CIRCLE
  5
27E5
  8
01-3D
 10
87.694107591003444
 20
-11.9068190097253
 30
-20.0
 40
4.0
210
0.0
220
0.0
230
-1.0
  0
CIRCLE
  5
27E6
  8
01-3D
 10
-122.335123742381
 20
-31.906819009725279
 30
37.0
 40
4.0
  0
CIRCLE
  5
27E7
  8
01-3D
 10
122.335123742381
 20
-31.906819009725279
 30
-20.0
 40
4.0
210
0.0
220
0.0
230
-1.0
  0
CIRCLE
  5
27E8
  8
01-3D
 10
122.335123742381
 20
8.0931809902747176
 30
-37.0
 40
48.0
210
0.0
220
0.0
230
-1.0
  0
CIRCLE
  5
27E9
  8
01-3D
 10
-122.335123742381
 20
8.0931809902747176
 30
20.0
 40
48.0
  0
CIRCLE
  5
27EA
  8
01-3D
 10
-122.335123742381
 20
8.0931809902747176
 30
37.0
 40
48.0
  0
CIRCLE
  5
27EB
  8
01-3D
 10
-122.335123742381
 20
-31.906819009725279
 30
37.0
 40
4.0
  0
CIRCLE
  5
27EC
  8
01-3D
 10
-122.335123742381
 20
8.0931809902747176
 30
37.0
 40
25.0
  0
CIRCLE
  5
27ED
  8
01-3D
 10
-87.694107591003444
 20
-11.9068190097253
 30
37.0
 40
4.0
  0
CIRCLE
  5
27EE
  8
01-3D
 10
-87.694107591003373
 20
28.093180990274689
 30
37.0
 40
4.0
  0
CIRCLE
  5
27EF
  8
01-3D
 10
-156.9761398937585
 20
-11.90681900972525
 30
37.0
 40
4.0
  0
CIRCLE
  5
27F0
  8
01-3D
 10
-122.335123742381
 20
48.09318099027471
 30
37.0
 40
4.0
  0
CIRCLE
  5
27F1
  8
01-3D
 10
-156.9761398937585
 20
28.093180990274721
 30
37.0
 40
4.0
  0
CIRCLE
  5
27F2
  8
01-3D
 10
-122.335123742381
 20
8.0931809902747176
 30
44.0
 40
15.0
  0
CIRCLE
  5
27F3
  8
01-3D
 10
122.335123742381
 20
8.0931809902747176
 30
-20.0
 40
15.0
210
0.0
220
0.0
230
-1.0
  0
CIRCLE
  5
27F4
  8
01-3D
 10
-122.335123742381
 20
8.0931809902747176
 30
37.0
 40
25.0
  0
CIRCLE
  5
27F5
  8
01-3D
 10
122.335123742381
 20
8.0931809902747176
 30
-44.0
 40
25.0
210
0.0
220
0.0
230
-1.0
  0
CIRCLE
  5
27F6
  8
01-3D
 10
-122.335123742381
 20
8.0931809902747176
 30
44.0
 40
15.0
  0
CIRCLE
  5
27F7
  8
01-3D
 10
-122.335123742381
 20
8.0931809902747176
 30
44.0
 40
25.0
  0
CIRCLE
  5
27F8
  8
01-3D
 10
122.335123742381
 20
8.0931809902747176
 30
-20.0
 40
20.0
210
0.0
220
0.0
230
-1.0
  0
CIRCLE
  5
27F9
  8
01-3D
 10
122.335123742381
 20
8.0931809902747176
 30
-20.0
 40
15.0
210
0.0
220
0.0
230
-1.0
  0
ENDBLK
  5
27FB
  8
0
  0
ENDSEC
  0
SECTION
  2
ENTITIES
  0
CIRCLE
  5
119
  8
6-KOPFPASSUNG_7MM
 10
0.0
 20
0.0
 30
0.0
 40
25.0
  0
CIRCLE
  5
11B
  8
7-FLANSCH-AUSSEN_96MM_17MM
 10
0.0
 20
0.0
 30
0.0
 40
48.0
  0
CIRCLE
  5
11C
  8
6-KOPFPASSUNG_7MM
 10
0.0
 20
0.0
 30
0.0
 40
15.0
  0
CIRCLE
  5
11D
  8
5-DURCHGANGSGEWINDE_M8X1_5
 10
0.0
 20
0.0
 30
0.0
 40
2.509999999999998
  0
CIRCLE
  5
11E
  8
2-WERKZEUGVERSCHRAUBUNG
 10
-33.0
 20
0.0
 30
0.0
 40
3.0
  0
CIRCLE
  5
11F
  8
2-WERKZEUGVERSCHRAUBUNG
 10
-16.5
 20
28.57883832488648
 30
0.0
 40
3.0
  0
CIRCLE
  5
120
  8
2-WERKZEUGVERSCHRAUBUNG
 10
16.5
 20
28.57883832488648
 30
0.0
 40
3.0
  0
CIRCLE
  5
121
  8
2-WERKZEUGVERSCHRAUBUNG
 10
33.0
 20
0.0
 30
0.0
 40
3.0
  0
CIRCLE
  5
122
  8
2-WERKZEUGVERSCHRAUBUNG
 10
16.5
 20
-28.57883832488649
 30
0.0
 40
3.0
  0
CIRCLE
  5
123
  8
2-WERKZEUGVERSCHRAUBUNG
 10
-16.5
 20
-28.57883832488648
 30
0.0
 40
3.0
  0
POLYLINE
  5
124
  8
2-WERKZEUGVERSCHRAUBUNG
 66
     1
 10
0.0
 20
0.0
 30
0.0
 70
     1
  0
VERTEX
  5
2731
  8
2-WERKZEUGVERSCHRAUBUNG
 10
-21.5
 20
25.692086978938331
 30
0.0
  0
VERTEX
  5
2732
  8
2-WERKZEUGVERSCHRAUBUNG
 10
-16.5
 20
22.805335632990221
 30
0.0
  0
VERTEX
  5
2733
  8
2-WERKZEUGVERSCHRAUBUNG
 10
-11.5
 20
25.692086978938331
 30
0.0
  0
VERTEX
  5
2734
  8
2-WERKZEUGVERSCHRAUBUNG
 10
-11.5
 20
31.465589670834589
 30
0.0
  0
VERTEX
  5
2735
  8
2-WERKZEUGVERSCHRAUBUNG
 10
-16.5
 20
34.352341016782759
 30
0.0
  0
VERTEX
  5
2736
  8
2-WERKZEUGVERSCHRAUBUNG
 10
-21.5
 20
31.465589670834621
 30
0.0
  0
SEQEND
  5
2737
  8
2-WERKZEUGVERSCHRAUBUNG
  0
POLYLINE
  5
125
  8
2-WERKZEUGVERSCHRAUBUNG
 66
     1
 10
0.0
 20
0.0
 30
0.0
 70
     1
  0
VERTEX
  5
2738
  8
2-WERKZEUGVERSCHRAUBUNG
 10
11.5
 20
25.692086978938331
 30
0.0
  0
VERTEX
  5
2739
  8
2-WERKZEUGVERSCHRAUBUNG
 10
16.5
 20
22.805335632990221
 30
0.0
  0
VERTEX
  5
273A
  8
2-WERKZEUGVERSCHRAUBUNG
 10
21.5
 20
25.692086978938331
 30
0.0
  0
VERTEX
  5
273B
  8
2-WERKZEUGVERSCHRAUBUNG
 10
21.5
 20
31.465589670834589
 30
0.0
  0
VERTEX
  5
273C
  8
2-WERKZEUGVERSCHRAUBUNG
 10
16.5
 20
34.352341016782759
 30
0.0
  0
VERTEX
  5
273D
  8
2-WERKZEUGVERSCHRAUBUNG
 10
11.5
 20
31.465589670834621
 30
0.0
  0
SEQEND
  5
273E
  8
2-WERKZEUGVERSCHRAUBUNG
  0
POLYLINE
  5
126
  8
2-WERKZEUGVERSCHRAUBUNG
 66
     1
 10
0.0
 20
0.0
 30
0.0
 70
     1
  0
VERTEX
  5
273F
  8
2-WERKZEUGVERSCHRAUBUNG
 10
11.5
 20
-31.465589670834621
 30
0.0
  0
VERTEX
  5
2740
  8
2-WERKZEUGVERSCHRAUBUNG
 10
16.5
 20
-34.352341016782752
 30
0.0
  0
VERTEX
  5
2741
  8
2-WERKZEUGVERSCHRAUBUNG
 10
21.5
 20
-31.465589670834621
 30
0.0
  0
VERTEX
  5
2742
  8
2-WERKZEUGVERSCHRAUBUNG
 10
21.5
 20
-25.692086978938381
 30
0.0
  0
VERTEX
  5
2743
  8
2-WERKZEUGVERSCHRAUBUNG
 10
16.5
 20
-22.805335632990239
 30
0.0
  0
VERTEX
  5
2744
  8
2-WERKZEUGVERSCHRAUBUNG
 10
11.5
 20
-25.692086978938349
 30
0.0
  0
SEQEND
  5
2745
  8
2-WERKZEUGVERSCHRAUBUNG
  0
POLYLINE
  5
127
  8
2-WERKZEUGVERSCHRAUBUNG
 66
     1
 10
0.0
 20
0.0
 30
0.0
 70
     1
  0
VERTEX
  5
2746
  8
2-WERKZEUGVERSCHRAUBUNG
 10
-21.5
 20
-31.465589670834611
 30
0.0
  0
VERTEX
  5
2747
  8
2-WERKZEUGVERSCHRAUBUNG
 10
-16.5
 20
-34.352341016782731
 30
0.0
  0
VERTEX
  5
2748
  8
2-WERKZEUGVERSCHRAUBUNG
 10
-11.5
 20
-31.465589670834621
 30
0.0
  0
VERTEX
  5
2749
  8
2-WERKZEUGVERSCHRAUBUNG
 10
-11.5
 20
-25.692086978938349
 30
0.0
  0
VERTEX
  5
274A
  8
2-WERKZEUGVERSCHRAUBUNG
 10
-16.5
 20
-22.805335632990221
 30
0.0
  0
VERTEX
  5
274B
  8
2-WERKZEUGVERSCHRAUBUNG
 10
-21.5
 20
-25.692086978938331
 30
0.0
  0
SEQEND
  5
274C
  8
2-WERKZEUGVERSCHRAUBUNG
  0
POLYLINE
  5
128
  8
2-WERKZEUGVERSCHRAUBUNG
 66
     1
 10
0.0
 20
0.0
 30
0.0
 70
     1
  0
VERTEX
  5
274D
  8
2-WERKZEUGVERSCHRAUBUNG
 10
28.0
 20
-2.8867513459481109
 30
0.0
  0
VERTEX
  5
274E
  8
2-WERKZEUGVERSCHRAUBUNG
 10
33.0
 20
-5.773502691896252
 30
0.0
  0
VERTEX
  5
274F
  8
2-WERKZEUGVERSCHRAUBUNG
 10
38.0
 20
-2.8867513459481402
 30
0.0
  0
VERTEX
  5
2750
  8
2-WERKZEUGVERSCHRAUBUNG
 10
38.0
 20
2.8867513459481109
 30
0.0
  0
VERTEX
  5
2751
  8
2-WERKZEUGVERSCHRAUBUNG
 10
33.0
 20
5.773502691896252
 30
0.0
  0
VERTEX
  5
2752
  8
2-WERKZEUGVERSCHRAUBUNG
 10
28.0
 20
2.8867513459481402
 30
0.0
  0
SEQEND
  5
2753
  8
2-WERKZEUGVERSCHRAUBUNG
  0
POLYLINE
  5
129
  8
2-WERKZEUGVERSCHRAUBUNG
 66
     1
 10
0.0
 20
0.0
 30
0.0
 70
     1
  0
VERTEX
  5
2754
  8
2-WERKZEUGVERSCHRAUBUNG
 10
-38.0
 20
-2.8867513459481109
 30
0.0
  0
VERTEX
  5
2755
  8
2-WERKZEUGVERSCHRAUBUNG
 10
-33.0
 20
-5.773502691896252
 30
0.0
  0
VERTEX
  5
2756
  8
2-WERKZEUGVERSCHRAUBUNG
 10
-28.0
 20
-2.8867513459481109
 30
0.0
  0
VERTEX
  5
2757
  8
2-WERKZEUGVERSCHRAUBUNG
 10
-28.0
 20
2.8867513459481402
 30
0.0
  0
VERTEX
  5
2758
  8
2-WERKZEUGVERSCHRAUBUNG
 10
-33.0
 20
5.773502691896252
 30
0.0
  0
VERTEX
  5
2759
  8
2-WERKZEUGVERSCHRAUBUNG
 10
-38.0
 20
2.8867513459481402
 30
0.0
  0
SEQEND
  5
275A
  8
2-WERKZEUGVERSCHRAUBUNG
  0
LINE
  5
297
  8
0
 10
109.9987221050911
 20
14.082929943746761
 30
0.0
 11
133.33843455623591
 21
-14.06237136530099
 31
0.0
  0
LINE
  5
2DA
  8
0
 10
79.717244363856054
 20
0.917070056253237
 30
0.0
 11
109.9987221050911
 21
14.082929943746761
 31
0.0
  0
LINE
  5
2DB
  8
0
 10
79.717244363856054
 20
-0.9170700562532376
 30
0.0
 11
109.9987221050911
 21
-14.082929943746761
 31
0.0
  0
ARC
  5
2DC
  8
0
 10
80.115970475270501
 20
-0.0000000000000002
 30
0.0
 40
1.0
 50
113.49856567595189
 51
246.50143432404801
  0
LINE
  5
2DD
  8
0
 10
109.9987221050911
 20
14.082929943746761
 30
0.0
 11
152.8691211145977
 21
14.082929943746761
 31
0.0
  0
LINE
  5
2DE
  8
0
 10
109.9987221050911
 20
-14.082929943746761
 30
0.0
 11
216.86562864260259
 21
-13.98879717814787
 31
0.0
  0
CIRCLE
  5
389
  8
1-LOCHKREIS_80MM
 10
0.0
 20
0.0
 30
0.0
 40
40.0
  0
LINE
  5
38D
  8
5-DURCHGANGSGEWINDE_M8X1_5
 10
82.115970475270501
 20
43.199999999999989
 30
0.0
 11
99.115970475270515
 21
43.199999999999989
 31
0.0
  0
LINE
  5
38E
  8
5-DURCHGANGSGEWINDE_M8X1_5
 10
82.115970475270501
 20
36.79999999999999
 30
0.0
 11
99.115970475270515
 21
36.79999999999999
 31
0.0
  0
LINE
  5
38F
  8
5-DURCHGANGSGEWINDE_M8X1_5
 10
82.115970475270487
 20
-36.799999999999997
 30
0.0
 11
99.115451871604805
 21
-36.799999999999912
 31
0.0
  0
LINE
  5
390
  8
5-DURCHGANGSGEWINDE_M8X1_5
 10
82.115970475270515
 20
-43.200000000000003
 30
0.0
 11
99.115748216556653
 21
-43.19999999999991
 31
0.0
  0
DIMENSION
  5
3B0
  8
0
  2
*D7
 10
68.773429966658796
 20
-15.0
 30
0.0
 11
68.773429966658796
 21
0.0000000000000118
 31
0.0
 70
     0
 13
75.115970475270501
 23
15.0
 33
0.0
 14
75.115970475270501
 24
-15.0
 34
0.0
 50
90.0
1001
ACAD
1000
DSTYLE
1002
{
1070
   287
1070
     3
1070
   287
1070
     3
1070
   274
1070
     2
1070
   279
1070
     0
1070
   284
1070
     0
1070
   285
1070
     0
1070
   286
1070
     0
1002
}
  0
DIMENSION
  5
3BD
  8
0
  2
*D8
 10
63.298262704234951
 20
-25.0
 30
0.0
 11
63.298262704234951
 21
0.0000000000000139
 31
0.0
 70
     0
 13
75.115970475270501
 23
25.0
 33
0.0
 14
75.115970475270501
 24
-25.0
 34
0.0
 50
90.0
1001
ACAD
1000
DSTYLE
1002
{
1070
   287
1070
     3
1070
   287
1070
     3
1070
   274
1070
     2
1070
   279
1070
     0
1070
   284
1070
     0
1070
   285
1070
     0
1070
   286
1070
     0
1002
}
  0
DIMENSION
  5
3CA
  8
0
  2
*D9
 10
57.256699316877402
 20
-47.999999999999993
 30
0.0
 11
57.256699316877409
 21
0.0000000000000143
 31
0.0
 70
     0
 13
82.115970475270501
 23
47.999999999999993
 33
0.0
 14
82.115970475270501
 24
-48.0
 34
0.0
 50
90.0
1001
ACAD
1000
DSTYLE
1002
{
1070
   287
1070
     3
1070
   287
1070
     3
1070
   274
1070
     2
1070
   279
1070
     0
1070
   284
1070
     0
1070
   285
1070
     0
1070
   286
1070
     0
1002
}
  0
DIMENSION
  5
5BC
  8
0
  2
*D10
 10
-29.83841556878405
 20
-26.63961254118659
 30
0.0
 11
47.884958302834633
 21
42.014933819188698
 31
0.0
 70
   131
 15
29.83841556878405
 25
26.63961254118659
 35
0.0
 40
0.0
1001
ACAD_DSTYLE_DIMRADIAL_EXTENSION
1070
   387
1070
     1
1070
   388
1040
0.0
1070
   390
1040
0.0
1001
ACAD
1000
DSTYLE
1002
{
1070
   287
1070
     3
1070
   287
1070
     3
1070
   274
1070
     2
1070
   279
1070
     0
1070
   284
1070
     0
1070
   285
1070
     0
1070
   286
1070
     0
1002
}
  0
CIRCLE
  5
5D4
  8
5-DURCHGANGSGEWINDE_M8X1_5
 10
34.641016151377571
 20
19.999999999999972
 30
0.0
 40
4.0
  0
CIRCLE
  5
5D5
  8
5-DURCHGANGSGEWINDE_M8X1_5
 10
34.641016151377528
 20
-20.000000000000021
 30
0.0
 40
4.0
  0
CIRCLE
  5
5D6
  8
5-DURCHGANGSGEWINDE_M8X1_5
 10
-0.0000000000000073
 20
-40.0
 30
0.0
 40
4.0
  0
CIRCLE
  5
5D7
  8
5-DURCHGANGSGEWINDE_M8X1_5
 10
-34.641016151377571
 20
-19.999999999999972
 30
0.0
 40
4.0
  0
CIRCLE
  5
5D8
  8
5-DURCHGANGSGEWINDE_M8X1_5
 10
-34.641016151377549
 20
20.0
 30
0.0
 40
4.0
  0
CIRCLE
  5
5D9
  8
5-DURCHGANGSGEWINDE_M8X1_5
 10
0.0000000000000024
 20
40.0
 30
0.0
 40
4.0
  0
LINE
  5
7B8
  8
5-DURCHGANGSGEWINDE_M8X1_5
 10
82.115970475270501
 20
36.79999999999999
 30
0.0
 11
82.115970475270501
 21
43.199999999999989
 31
0.0
  0
LINE
  5
7B9
  8
5-DURCHGANGSGEWINDE_M8X1_5
 10
99.115970475270515
 20
43.199999999999989
 30
0.0
 11
99.115970475270515
 21
36.79999999999999
 31
0.0
  0
LINE
  5
7BA
  8
6-KOPFPASSUNG_7MM
 10
99.115970475270515
 20
-47.999999999999993
 30
0.0
 11
99.115970475270515
 21
-47.999999999999993
 31
0.0
  0
LINE
  5
7BB
  8
6-KOPFPASSUNG_7MM
 10
99.115970475270515
 20
-47.999999999999993
 30
0.0
 11
99.115970475270515
 21
-47.999999999999993
 31
0.0
  0
LINE
  5
7BC
  8
6-KOPFPASSUNG_7MM
 10
99.115970475270515
 20
-47.999999999999993
 30
0.0
 11
99.115970475270515
 21
-47.999999999999993
 31
0.0
  0
LINE
  5
7BD
  8
6-KOPFPASSUNG_7MM
 10
99.115970475270515
 20
-47.999999999999993
 30
0.0
 11
99.115970475270515
 21
-47.999999999999993
 31
0.0
  0
LINE
  5
7CF
  8
6-KOPFPASSUNG_7MM
 10
99.115970475270515
 20
-47.999999999999993
 30
0.0
 11
99.115970475270515
 21
-47.999999999999993
 31
0.0
  0
LINE
  5
874
  8
0
 10
148.97181211373339
 20
14.082929943746761
 30
0.0
 11
172.28307766741381
 21
-14.02806732226189
 31
0.0
  0
LINE
  5
875
  8
0
 10
187.94490212237559
 20
14.082929943746761
 30
0.0
 11
211.22772077859159
 21
-13.993763279222801
 31
0.0
  0
LINE
  5
876
  8
0
 10
113.1355435283304
 20
15.000000025858739
 30
0.0
 11
137.2328988673537
 21
-14.05894096099707
 31
0.0
  0
LINE
  5
877
  8
0
 10
152.8691211145977
 20
14.082929943746761
 30
0.0
 11
176.17754197853159
 21
-14.024636917957981
 31
0.0
  0
LINE
  5
878
  8
0
 10
191.84221112324011
 20
14.082929943746761
 30
0.0
 11
215.12218508970969
 21
-13.9903328749189
 31
0.0
  0
LINE
  5
879
  8
0
 10
152.8691211145977
 20
14.082929943746761
 30
0.0
 11
216.86562864260259
 21
14.082929943746761
 31
0.0
  0
CIRCLE
  5
87A
  8
4-ROHRGEWINDE-AUSSEN_M45X2
 10
0.0
 20
0.0
 30
0.0
 40
22.5
  0
INSERT
  5
C6B
  8
5-DURCHGANGSGEWINDE_M8X1_5
  2
*U11
 10
0.0
 20
0.0
 30
0.0
  0
LINE
  5
E7C
  8
5-DURCHGANGSGEWINDE_M8X1_5
 10
82.115970475270487
 20
-36.799999999999997
 30
0.0
 11
82.115970475270515
 21
-43.200000000000003
 31
0.0
  0
LINE
  5
E7D
  8
5-DURCHGANGSGEWINDE_M8X1_5
 10
99.115451871604805
 20
-36.799999999999912
 30
0.0
 11
99.115451871604833
 21
-43.19999999999991
 31
0.0
  0
POLYLINE
  5
F5B
  8
7-FLANSCH-AUSSEN_96MM_17MM
 66
     1
 10
0.0
 20
0.0
 30
0.0
  0
VERTEX
  5
27FC
  8
7-FLANSCH-AUSSEN_96MM_17MM
 10
99.119991052542204
 20
20.509348815368231
 30
0.0
  0
VERTEX
  5
27FD
  8
7-FLANSCH-AUSSEN_96MM_17MM
 10
99.119991052136811
 20
15.00000002885446
 30
0.0
  0
VERTEX
  5
27FE
  8
7-FLANSCH-AUSSEN_96MM_17MM
 10
75.115970475270501
 20
15.0
 30
0.0
  0
VERTEX
  5
27FF
  8
7-FLANSCH-AUSSEN_96MM_17MM
 10
75.115970475270501
 20
25.0
 30
0.0
  0
VERTEX
  5
2800
  8
7-FLANSCH-AUSSEN_96MM_17MM
 10
82.116083706142774
 20
25.009348807814732
 30
0.0
  0
VERTEX
  5
2801
  8
7-FLANSCH-AUSSEN_96MM_17MM
 10
82.116083706142774
 20
48.009348807814732
 30
0.0
  0
VERTEX
  5
2802
  8
7-FLANSCH-AUSSEN_96MM_17MM
 10
99.116083706142817
 20
48.009348807814717
 30
0.0
  0
VERTEX
  5
2803
  8
7-FLANSCH-AUSSEN_96MM_17MM
 10
99.110171255144692
 20
30.017642012650391
 30
0.0
  0
VERTEX
  5
2804
  8
7-FLANSCH-AUSSEN_96MM_17MM
 10
129.77696647486439
 20
30.015758192173902
 30
0.0
  0
VERTEX
  5
2805
  8
7-FLANSCH-AUSSEN_96MM_17MM
 10
129.77681270632669
 20
25.007879125093311
 30
0.0
  0
SEQEND
  5
2806
  8
7-FLANSCH-AUSSEN_96MM_17MM
  0
POLYLINE
  5
F64
  8
7-FLANSCH-AUSSEN_96MM_17MM
 66
     1
 10
0.0
 20
0.0
 30
0.0
  0
VERTEX
  5
2807
  8
7-FLANSCH-AUSSEN_96MM_17MM
 10
99.109612673059075
 20
-20.510701721367671
 30
0.0
  0
VERTEX
  5
2808
  8
7-FLANSCH-AUSSEN_96MM_17MM
 10
99.109403960011107
 20
-14.978259175396371
 30
0.0
  0
VERTEX
  5
2809
  8
7-FLANSCH-AUSSEN_96MM_17MM
 10
75.115970475270501
 20
-15.0
 30
0.0
  0
VERTEX
  5
280A
  8
7-FLANSCH-AUSSEN_96MM_17MM
 10
75.115970475270501
 20
-25.0
 30
0.0
  0
VERTEX
  5
280B
  8
7-FLANSCH-AUSSEN_96MM_17MM
 10
82.115970475270501
 20
-25.0
 30
0.0
  0
VERTEX
  5
280C
  8
7-FLANSCH-AUSSEN_96MM_17MM
 10
82.115970475270501
 20
-48.0
 30
0.0
  0
VERTEX
  5
280D
  8
7-FLANSCH-AUSSEN_96MM_17MM
 10
99.115970475270515
 20
-47.999999999999993
 30
0.0
  0
VERTEX
  5
280E
  8
7-FLANSCH-AUSSEN_96MM_17MM
 10
99.110901532041936
 20
-29.999999668464341
 30
0.0
  0
VERTEX
  5
280F
  8
7-FLANSCH-AUSSEN_96MM_17MM
 10
129.76719138298901
 20
-29.98985191059748
 30
0.0
  0
VERTEX
  5
2810
  8
7-FLANSCH-AUSSEN_96MM_17MM
 10
129.7671904856694
 20
-24.98985239497085
 30
0.0
  0
SEQEND
  5
2811
  8
7-FLANSCH-AUSSEN_96MM_17MM
  0
POLYLINE
  5
F6D
  8
3-SCHNECKENROHR-BARREL
 66
     1
 10
0.0
 20
0.0
 30
0.0
  0
VERTEX
  5
2812
  8
3-SCHNECKENROHR-BARREL
 10
99.119991052542204
 20
20.509348815368231
 30
0.0
  0
VERTEX
  5
2813
  8
3-SCHNECKENROHR-BARREL
 10
99.119991052136811
 20
15.00000002885446
 30
0.0
  0
VERTEX
  5
2814
  8
3-SCHNECKENROHR-BARREL
 10
234.1159704752705
 20
15.0
 30
0.0
  0
SEQEND
  5
2815
  8
3-SCHNECKENROHR-BARREL
  0
POLYLINE
  5
F6E
  8
4-ROHRGEWINDE-AUSSEN_M45X2
 66
     1
 10
0.0
 20
0.0
 30
0.0
  0
VERTEX
  5
2816
  8
4-ROHRGEWINDE-AUSSEN_M45X2
 10
127.9946751456874
 20
20.509348843829429
 30
0.0
  0
VERTEX
  5
2817
  8
4-ROHRGEWINDE-AUSSEN_M45X2
 10
129.7766589372051
 20
22.509348843829429
 30
0.0
  0
SEQEND
  5
2818
  8
4-ROHRGEWINDE-AUSSEN_M45X2
  0
POLYLINE
  5
F6F
  8
4-ROHRGEWINDE-AUSSEN_M45X2
 66
     1
 10
0.0
 20
0.0
 30
0.0
  0
VERTEX
  5
2819
  8
4-ROHRGEWINDE-AUSSEN_M45X2
 10
124.7863769663701
 20
20.50934881497496
 30
0.0
  0
VERTEX
  5
281A
  8
4-ROHRGEWINDE-AUSSEN_M45X2
 10
126.5683607578877
 20
22.50934881497496
 30
0.0
  0
VERTEX
  5
281B
  8
4-ROHRGEWINDE-AUSSEN_M45X2
 10
127.99467540515209
 20
20.50934881497496
 30
0.0
  0
SEQEND
  5
281C
  8
4-ROHRGEWINDE-AUSSEN_M45X2
  0
POLYLINE
  5
F71
  8
4-ROHRGEWINDE-AUSSEN_M45X2
 66
     1
 10
0.0
 20
0.0
 30
0.0
  0
VERTEX
  5
281D
  8
4-ROHRGEWINDE-AUSSEN_M45X2
 10
121.57807863969521
 20
20.50934899274753
 30
0.0
  0
VERTEX
  5
281E
  8
4-ROHRGEWINDE-AUSSEN_M45X2
 10
123.3600624312128
 20
22.50934899274753
 30
0.0
  0
VERTEX
  5
281F
  8
4-ROHRGEWINDE-AUSSEN_M45X2
 10
124.7863770784771
 20
20.50934899274753
 30
0.0
  0
SEQEND
  5
2820
  8
4-ROHRGEWINDE-AUSSEN_M45X2
  0
POLYLINE
  5
F73
  8
4-ROHRGEWINDE-AUSSEN_M45X2
 66
     1
 10
0.0
 20
0.0
 30
0.0
  0
VERTEX
  5
2821
  8
4-ROHRGEWINDE-AUSSEN_M45X2
 10
118.3697802515626
 20
20.50934881497496
 30
0.0
  0
VERTEX
  5
2822
  8
4-ROHRGEWINDE-AUSSEN_M45X2
 10
120.15176404308021
 20
22.50934881497496
 30
0.0
  0
VERTEX
  5
2823
  8
4-ROHRGEWINDE-AUSSEN_M45X2
 10
121.5780786903446
 20
20.50934881497496
 30
0.0
  0
SEQEND
  5
2824
  8
4-ROHRGEWINDE-AUSSEN_M45X2
  0
POLYLINE
  5
F75
  8
4-ROHRGEWINDE-AUSSEN_M45X2
 66
     1
 10
0.0
 20
0.0
 30
0.0
  0
VERTEX
  5
2825
  8
4-ROHRGEWINDE-AUSSEN_M45X2
 10
115.16148205166751
 20
20.50934881497496
 30
0.0
  0
VERTEX
  5
2826
  8
4-ROHRGEWINDE-AUSSEN_M45X2
 10
116.94346584318509
 20
22.50934881497496
 30
0.0
  0
VERTEX
  5
2827
  8
4-ROHRGEWINDE-AUSSEN_M45X2
 10
118.3697804904494
 20
20.50934881497496
 30
0.0
  0
SEQEND
  5
2828
  8
4-ROHRGEWINDE-AUSSEN_M45X2
  0
POLYLINE
  5
F77
  8
4-ROHRGEWINDE-AUSSEN_M45X2
 66
     1
 10
0.0
 20
0.0
 30
0.0
  0
VERTEX
  5
2829
  8
4-ROHRGEWINDE-AUSSEN_M45X2
 10
111.95318385177239
 20
20.50934881497496
 30
0.0
  0
VERTEX
  5
282A
  8
4-ROHRGEWINDE-AUSSEN_M45X2
 10
113.73516764329
 20
22.50934881497496
 30
0.0
  0
VERTEX
  5
282B
  8
4-ROHRGEWINDE-AUSSEN_M45X2
 10
115.1614822905543
 20
20.50934881497496
 30
0.0
  0
SEQEND
  5
282C
  8
4-ROHRGEWINDE-AUSSEN_M45X2
  0
POLYLINE
  5
F79
  8
4-ROHRGEWINDE-AUSSEN_M45X2
 66
     1
 10
0.0
 20
0.0
 30
0.0
  0
VERTEX
  5
282D
  8
4-ROHRGEWINDE-AUSSEN_M45X2
 10
108.7448856312994
 20
20.509348843829429
 30
0.0
  0
VERTEX
  5
282E
  8
4-ROHRGEWINDE-AUSSEN_M45X2
 10
110.5268694228171
 20
22.509348843829429
 30
0.0
  0
VERTEX
  5
282F
  8
4-ROHRGEWINDE-AUSSEN_M45X2
 10
111.95318407008141
 20
20.509348843829429
 30
0.0
  0
SEQEND
  5
2830
  8
4-ROHRGEWINDE-AUSSEN_M45X2
  0
POLYLINE
  5
F7B
  8
4-ROHRGEWINDE-AUSSEN_M45X2
 66
     1
 10
0.0
 20
0.0
 30
0.0
  0
VERTEX
  5
2831
  8
4-ROHRGEWINDE-AUSSEN_M45X2
 10
105.5365874519821
 20
20.50934881497496
 30
0.0
  0
VERTEX
  5
2832
  8
4-ROHRGEWINDE-AUSSEN_M45X2
 10
107.3185712434997
 20
22.50934881497496
 30
0.0
  0
VERTEX
  5
2833
  8
4-ROHRGEWINDE-AUSSEN_M45X2
 10
108.7448858907641
 20
20.50934881497496
 30
0.0
  0
SEQEND
  5
2834
  8
4-ROHRGEWINDE-AUSSEN_M45X2
  0
POLYLINE
  5
F7D
  8
4-ROHRGEWINDE-AUSSEN_M45X2
 66
     1
 10
0.0
 20
0.0
 30
0.0
  0
VERTEX
  5
2835
  8
4-ROHRGEWINDE-AUSSEN_M45X2
 10
102.328289252087
 20
20.50934881497496
 30
0.0
  0
VERTEX
  5
2836
  8
4-ROHRGEWINDE-AUSSEN_M45X2
 10
104.11027304360459
 20
22.50934881497496
 30
0.0
  0
VERTEX
  5
2837
  8
4-ROHRGEWINDE-AUSSEN_M45X2
 10
105.536587690869
 20
20.50934881497496
 30
0.0
  0
SEQEND
  5
2838
  8
4-ROHRGEWINDE-AUSSEN_M45X2
  0
POLYLINE
  5
F7F
  8
4-ROHRGEWINDE-AUSSEN_M45X2
 66
     1
 10
0.0
 20
0.0
 30
0.0
  0
VERTEX
  5
2839
  8
4-ROHRGEWINDE-AUSSEN_M45X2
 10
99.119991052191807
 20
20.50934881497496
 30
0.0
  0
VERTEX
  5
283A
  8
4-ROHRGEWINDE-AUSSEN_M45X2
 10
100.9019748437095
 20
22.50934881497496
 30
0.0
  0
VERTEX
  5
283B
  8
4-ROHRGEWINDE-AUSSEN_M45X2
 10
102.3282894909738
 20
20.50934881497496
 30
0.0
  0
SEQEND
  5
283C
  8
4-ROHRGEWINDE-AUSSEN_M45X2
  0
POLYLINE
  5
F81
  8
3-SCHNECKENROHR-BARREL
 66
     1
 10
0.0
 20
0.0
 30
0.0
  0
VERTEX
  5
283D
  8
3-SCHNECKENROHR-BARREL
 10
129.77665893773951
 20
25.009348808118521
 30
0.0
  0
VERTEX
  5
283E
  8
3-SCHNECKENROHR-BARREL
 10
234.11597047628959
 20
25.009348785816702
 30
0.0
  0
SEQEND
  5
283F
  8
3-SCHNECKENROHR-BARREL
  0
POLYLINE
  5
F83
  8
3-SCHNECKENROHR-BARREL
 66
     1
 10
0.0
 20
0.0
 30
0.0
  0
VERTEX
  5
2840
  8
3-SCHNECKENROHR-BARREL
 10
99.109612673059075
 20
-20.510701721367671
 30
0.0
  0
VERTEX
  5
2841
  8
3-SCHNECKENROHR-BARREL
 10
99.109403960011107
 20
-14.978259175396371
 30
0.0
  0
VERTEX
  5
2842
  8
3-SCHNECKENROHR-BARREL
 10
234.1159704752705
 20
-14.999999999999989
 30
0.0
  0
SEQEND
  5
2843
  8
3-SCHNECKENROHR-BARREL
  0
POLYLINE
  5
F86
  8
4-ROHRGEWINDE-AUSSEN_M45X2
 66
     1
 10
0.0
 20
0.0
 30
0.0
  0
VERTEX
  5
2844
  8
4-ROHRGEWINDE-AUSSEN_M45X2
 10
124.7759925943618
 20
-20.493162312275029
 30
0.0
  0
VERTEX
  5
2845
  8
4-ROHRGEWINDE-AUSSEN_M45X2
 10
126.5593426919538
 20
-22.491944106931619
 30
0.0
  0
VERTEX
  5
2846
  8
4-ROHRGEWINDE-AUSSEN_M45X2
 10
127.9842902840344
 20
-20.490969886002119
 30
0.0
  0
SEQEND
  5
2847
  8
4-ROHRGEWINDE-AUSSEN_M45X2
  0
POLYLINE
  5
F88
  8
4-ROHRGEWINDE-AUSSEN_M45X2
 66
     1
 10
0.0
 20
0.0
 30
0.0
  0
VERTEX
  5
2848
  8
4-ROHRGEWINDE-AUSSEN_M45X2
 10
121.5676950169178
 20
-20.495354916243869
 30
0.0
  0
VERTEX
  5
2849
  8
4-ROHRGEWINDE-AUSSEN_M45X2
 10
123.3510451145098
 20
-22.494136710900442
 30
0.0
  0
VERTEX
  5
284A
  8
4-ROHRGEWINDE-AUSSEN_M45X2
 10
124.7759927065903
 20
-20.493162489970938
 30
0.0
  0
SEQEND
  5
284B
  8
4-ROHRGEWINDE-AUSSEN_M45X2
  0
POLYLINE
  5
F8A
  8
4-ROHRGEWINDE-AUSSEN_M45X2
 66
     1
 10
0.0
 20
0.0
 30
0.0
  0
VERTEX
  5
284C
  8
4-ROHRGEWINDE-AUSSEN_M45X2
 10
118.35939737777331
 20
-20.497547164709641
 30
0.0
  0
VERTEX
  5
284D
  8
4-ROHRGEWINDE-AUSSEN_M45X2
 10
120.1427474753652
 20
-22.496328959366231
 30
0.0
  0
VERTEX
  5
284E
  8
4-ROHRGEWINDE-AUSSEN_M45X2
 10
121.5676950674458
 20
-20.495354738436731
 30
0.0
  0
SEQEND
  5
284F
  8
4-ROHRGEWINDE-AUSSEN_M45X2
  0
POLYLINE
  5
F8C
  8
4-ROHRGEWINDE-AUSSEN_M45X2
 66
     1
 10
0.0
 20
0.0
 30
0.0
  0
VERTEX
  5
2850
  8
4-ROHRGEWINDE-AUSSEN_M45X2
 10
115.1510999269875
 20
-20.49973959081931
 30
0.0
  0
VERTEX
  5
2851
  8
4-ROHRGEWINDE-AUSSEN_M45X2
 10
116.93445002457941
 20
-22.4985213854759
 30
0.0
  0
VERTEX
  5
2852
  8
4-ROHRGEWINDE-AUSSEN_M45X2
 10
118.3593976166601
 20
-20.4975471645464
 30
0.0
  0
SEQEND
  5
2853
  8
4-ROHRGEWINDE-AUSSEN_M45X2
  0
POLYLINE
  5
F8E
  8
4-ROHRGEWINDE-AUSSEN_M45X2
 66
     1
 10
0.0
 20
0.0
 30
0.0
  0
VERTEX
  5
2854
  8
4-ROHRGEWINDE-AUSSEN_M45X2
 10
111.94280247620181
 20
-20.501932016928979
 30
0.0
  0
VERTEX
  5
2855
  8
4-ROHRGEWINDE-AUSSEN_M45X2
 10
113.7261525737938
 20
-22.50071381158557
 30
0.0
  0
VERTEX
  5
2856
  8
4-ROHRGEWINDE-AUSSEN_M45X2
 10
115.1511001658743
 20
-20.49973959065607
 30
0.0
  0
SEQEND
  5
2857
  8
4-ROHRGEWINDE-AUSSEN_M45X2
  0
POLYLINE
  5
F90
  8
4-ROHRGEWINDE-AUSSEN_M45X2
 66
     1
 10
0.0
 20
0.0
 30
0.0
  0
VERTEX
  5
2858
  8
4-ROHRGEWINDE-AUSSEN_M45X2
 10
108.73450500485799
 20
-20.504124471907168
 30
0.0
  0
VERTEX
  5
2859
  8
4-ROHRGEWINDE-AUSSEN_M45X2
 10
110.51785510245
 20
-22.502906266563759
 30
0.0
  0
VERTEX
  5
285A
  8
4-ROHRGEWINDE-AUSSEN_M45X2
 10
111.9428026945306
 20
-20.501932045634248
 30
0.0
  0
SEQEND
  5
285B
  8
4-ROHRGEWINDE-AUSSEN_M45X2
  0
POLYLINE
  5
F92
  8
4-ROHRGEWINDE-AUSSEN_M45X2
 66
     1
 10
0.0
 20
0.0
 30
0.0
  0
VERTEX
  5
285C
  8
4-ROHRGEWINDE-AUSSEN_M45X2
 10
105.5262075746305
 20
-20.506316869148321
 30
0.0
  0
VERTEX
  5
285D
  8
4-ROHRGEWINDE-AUSSEN_M45X2
 10
107.3095576722224
 20
-22.505098663804901
 30
0.0
  0
VERTEX
  5
285E
  8
4-ROHRGEWINDE-AUSSEN_M45X2
 10
108.7345052643029
 20
-20.504124442875408
 30
0.0
  0
SEQEND
  5
285F
  8
4-ROHRGEWINDE-AUSSEN_M45X2
  0
POLYLINE
  5
F94
  8
4-ROHRGEWINDE-AUSSEN_M45X2
 66
     1
 10
0.0
 20
0.0
 30
0.0
  0
VERTEX
  5
2860
  8
4-ROHRGEWINDE-AUSSEN_M45X2
 10
102.3179101238447
 20
-20.508509295258001
 30
0.0
  0
VERTEX
  5
2861
  8
4-ROHRGEWINDE-AUSSEN_M45X2
 10
104.1012602214367
 20
-22.507291089914581
 30
0.0
  0
VERTEX
  5
2862
  8
4-ROHRGEWINDE-AUSSEN_M45X2
 10
105.5262078135172
 20
-20.506316868985081
 30
0.0
  0
SEQEND
  5
2863
  8
4-ROHRGEWINDE-AUSSEN_M45X2
  0
POLYLINE
  5
F96
  8
4-ROHRGEWINDE-AUSSEN_M45X2
 66
     1
 10
0.0
 20
0.0
 30
0.0
  0
VERTEX
  5
2864
  8
4-ROHRGEWINDE-AUSSEN_M45X2
 10
99.109612673059075
 20
-20.510701721367671
 30
0.0
  0
VERTEX
  5
2865
  8
4-ROHRGEWINDE-AUSSEN_M45X2
 10
100.8929627706509
 20
-22.509483516024261
 30
0.0
  0
VERTEX
  5
2866
  8
4-ROHRGEWINDE-AUSSEN_M45X2
 10
102.3179103627315
 20
-20.508509295094761
 30
0.0
  0
SEQEND
  5
2867
  8
4-ROHRGEWINDE-AUSSEN_M45X2
  0
POLYLINE
  5
F98
  8
3-SCHNECKENROHR-BARREL
 66
     1
 10
0.0
 20
0.0
 30
0.0
  0
VERTEX
  5
2868
  8
3-SCHNECKENROHR-BARREL
 10
127.9842900245895
 20
-20.49096991503388
 30
0.0
  0
VERTEX
  5
2869
  8
3-SCHNECKENROHR-BARREL
 10
129.7676401221814
 20
-22.489751709690459
 30
0.0
  0
VERTEX
  5
286A
  8
3-SCHNECKENROHR-BARREL
 10
234.11597047633921
 20
-22.499135473588488
 30
0.0
  0
SEQEND
  5
286B
  8
3-SCHNECKENROHR-BARREL
  0
POLYLINE
  5
10FC
  8
3-SCHNECKENROHR-BARREL
 66
     1
 10
0.0
 20
0.0
 30
0.0
  0
VERTEX
  5
286F
  8
3-SCHNECKENROHR-BARREL
 10
129.7766589372051
 20
22.509348808118521
 30
0.0
  0
VERTEX
  5
2870
  8
3-SCHNECKENROHR-BARREL
 10
234.1159704757552
 20
22.509348785816702
 30
0.0
  0
SEQEND
  5
2871
  8
3-SCHNECKENROHR-BARREL
  0
POLYLINE
  5
10FE
  8
3-SCHNECKENROHR-BARREL
 66
     1
 10
0.0
 20
0.0
 30
0.0
  0
VERTEX
  5
2872
  8
3-SCHNECKENROHR-BARREL
 10
129.7671904856694
 20
-24.98985239497085
 30
0.0
  0
VERTEX
  5
2873
  8
3-SCHNECKENROHR-BARREL
 10
129.7671904856694
 20
-24.98985239497085
 30
0.0
  0
VERTEX
  5
2874
  8
3-SCHNECKENROHR-BARREL
 10
234.1155208398271
 20
-24.999236158868879
 30
0.0
  0
SEQEND
  5
2875
  8
3-SCHNECKENROHR-BARREL
  0
LINE
  5
1101
  8
4-ROHRGEWINDE-AUSSEN_M45X2
 10
129.7766589372051
 20
22.509348843829429
 30
0.0
 11
129.77681270632669
 21
25.007879125093311
 31
0.0
  0
LINE
  5
1102
  8
4-ROHRGEWINDE-AUSSEN_M45X2
 10
129.7676401221814
 20
-22.489751709690459
 30
0.0
 11
129.7674152948683
 21
-24.98985241518734
 31
0.0
  0
CIRCLE
  5
1103
  8
3-SCHNECKENROHR-BARREL
 10
0.0
 20
0.0
 30
0.0
 40
30.0
  0
CIRCLE
  5
1104
  8
3-SCHNECKENROHR-BARREL
 10
-122.335123742381
 20
8.0931809902747176
 30
20.0
 40
30.0
  0
ENDSEC
  0
EOF
